<svg width="60" height="61" viewBox="0 0 60 61" fill="none" xmlns="http://www.w3.org/2000/svg">
<g clip-path="url(#clip0_13_788)">
<path d="M23.4375 23H17.8125C17.295 23 16.875 23.42 16.875 23.9375V44.5625C16.875 45.08 17.295 45.5 17.8125 45.5H23.4375C23.955 45.5 24.375 45.08 24.375 44.5625V23.9375C24.375 23.42 23.955 23 23.4375 23ZM22.5 43.625H18.75V24.875H22.5V43.625Z" fill="#808184"/>
<path d="M20.625 13.625C18.5569 13.625 16.875 15.3069 16.875 17.375C16.875 19.4431 18.5569 21.125 20.625 21.125C22.6931 21.125 24.375 19.4431 24.375 17.375C24.375 15.3069 22.6931 13.625 20.625 13.625ZM20.625 19.25C19.59 19.25 18.75 18.4081 18.75 17.375C18.75 16.3419 19.59 15.5 20.625 15.5C21.66 15.5 22.5 16.3419 22.5 17.375C22.5 18.4081 21.66 19.25 20.625 19.25Z" fill="#808184"/>
<path d="M36.5906 22.9738C35.5894 22.9738 34.5338 23.1969 33.6769 23.5738C33.5363 23.2363 33.2006 23 32.8125 23H27.1875C26.67 23 26.25 23.42 26.25 23.9375V44.5625C26.25 45.08 26.67 45.5 27.1875 45.5H32.8125C33.33 45.5 33.75 45.08 33.75 44.5625L33.7462 32.0731C33.7462 32.0675 33.7238 31.4431 34.1213 31.0138C34.4344 30.6725 34.9688 30.5 35.7075 30.5C36.93 30.5 37.5 31.0231 37.5 32.1481V44.5625C37.5 45.08 37.92 45.5 38.4375 45.5H44.0625C44.58 45.5 45 45.08 45 44.5625V31.7338C45 25.2688 40.47 22.9738 36.5906 22.9738ZM43.125 43.625H39.375V32.1481C39.375 29.975 37.9706 28.625 35.7075 28.625C34.425 28.625 33.4275 29 32.7431 29.7406C31.7925 30.77 31.8656 32.0769 31.875 32.1481V43.625H28.125V24.875H31.875V25.5406C31.875 26.0581 32.295 26.4781 32.8125 26.4781C33.2719 26.4781 33.6525 26.1481 33.7331 25.7131C33.9844 25.4394 35.0869 24.8506 36.5887 24.8506C38.1206 24.8506 43.1231 25.3475 43.1231 31.7338L43.125 43.625Z" fill="#808184"/>
<path d="M30 0.434326C13.4213 0.434326 -0.0637207 13.9231 -0.0637207 30.5C-0.0637207 47.0768 13.4213 60.5656 30 60.5656C46.5788 60.5656 60.0638 47.0768 60.0638 30.5C60.0638 13.9231 46.5788 0.434326 30 0.434326ZM30 58.5593C14.5275 58.5593 1.93878 45.9725 1.93878 30.5C1.93878 15.0275 14.5275 2.44058 30 2.44058C45.4725 2.44058 58.0613 15.0275 58.0613 30.5C58.0613 45.9725 45.4725 58.5593 30 58.5593Z" fill="#808184"/>
</g>
<defs>
<clipPath id="clip0_13_788">
<rect width="60" height="60" fill="white" transform="translate(0 0.5)"/>
</clipPath>
</defs>
</svg>
