<svg width="60" height="61" viewBox="0 0 60 61" fill="none" xmlns="http://www.w3.org/2000/svg">
<g clip-path="url(#clip0_13_784)">
<path d="M30 0.434326C13.4231 0.434326 -0.0656128 13.9231 -0.0656128 30.5C-0.0656128 47.0768 13.4231 60.5656 30 60.5656C46.5769 60.5656 60.0656 47.0768 60.0656 30.5C60.0656 13.9231 46.5769 0.434326 30 0.434326ZM30 58.5593C14.5275 58.5593 1.94064 45.9725 1.94064 30.5C1.94064 15.0275 14.5275 2.44058 30 2.44058C45.4725 2.44058 58.0594 15.0275 58.0594 30.5C58.0594 45.9725 45.4725 58.5593 30 58.5593Z" fill="#808184"/>
<path d="M36.5625 13.625H31.56C25.5975 13.625 24.375 16.8819 24.375 21.7719L24.3787 24.875H21.5625C21.045 24.875 20.625 25.295 20.625 25.8125V31.4375C20.625 31.955 21.045 32.375 21.5625 32.375H24.375V46.4375C24.375 46.955 24.795 47.375 25.3125 47.375H31.0463C31.5638 47.375 31.9838 46.955 31.9838 46.4375L31.9875 32.375H36.5625C37.08 32.375 37.5 31.955 37.5 31.4375V25.8125C37.5 25.295 37.08 24.875 36.5625 24.875H31.9856L31.9913 22.2575C31.9913 20.9956 31.9913 20.9956 33.1706 20.9938L36.525 21.125C36.7631 21.1325 37.0275 21.0406 37.2113 20.8644C37.395 20.6881 37.5 20.4425 37.5 20.1875V14.5625C37.5 14.045 37.08 13.625 36.5625 13.625ZM35.625 19.2125L33.2081 19.1188C30.3563 19.1188 30.1181 20.6694 30.1181 22.2538L30.1106 25.8088C30.1106 26.0581 30.2081 26.2963 30.3844 26.4725C30.5588 26.6506 30.7969 26.75 31.0463 26.75H35.625V30.5H31.05C30.5325 30.5 30.1125 30.92 30.1125 31.4375L30.1088 45.5H26.25V31.4375C26.25 30.92 25.83 30.5 25.3125 30.5H22.5V26.75H25.3181C25.5675 26.75 25.8056 26.6506 25.9819 26.4744C26.1581 26.2981 26.2556 26.06 26.2556 25.8106L26.25 21.77C26.25 17.5231 27.045 15.5 31.56 15.5H35.625V19.2125Z" fill="#808184"/>
</g>
<defs>
<clipPath id="clip0_13_784">
<rect width="60" height="60" fill="white" transform="translate(0 0.5)"/>
</clipPath>
</defs>
</svg>
