<svg width="60" height="61" viewBox="0 0 60 61" fill="none" xmlns="http://www.w3.org/2000/svg">
<g clip-path="url(#clip0_13_794)">
<path d="M30 0.434326C13.4213 0.434326 -0.0637207 13.9231 -0.0637207 30.5C-0.0637207 47.0768 13.4213 60.5656 30 60.5656C46.5788 60.5656 60.0638 47.0768 60.0638 30.5C60.0638 13.9231 46.5788 0.434326 30 0.434326ZM30 58.5593C14.5275 58.5593 1.93878 45.9725 1.93878 30.5C1.93878 15.0275 14.5275 2.44058 30 2.44058C45.4725 2.44058 58.0613 15.0275 58.0613 30.5C58.0613 45.9725 45.4725 58.5593 30 58.5593Z" fill="#808184"/>
<path d="M36.6094 29.7799C35.61 29.2586 34.5375 28.6661 33.4631 28.0755C31.2244 26.8418 29.1075 25.6755 27.5325 25.0493C27.2456 24.933 26.9194 24.9705 26.6606 25.143C26.4037 25.3193 26.25 25.6099 26.25 25.9211V35.2718C26.25 35.5924 26.415 35.8924 26.685 36.063C26.8388 36.1605 27.0131 36.2093 27.1875 36.2093C27.3244 36.2093 27.4613 36.1793 27.5906 36.1193C29.4769 35.223 31.5469 34.1224 33.5512 33.0574C34.5731 32.5118 35.6006 31.9661 36.6094 31.4449C36.9187 31.2836 37.1156 30.9649 37.1156 30.6143C37.1156 30.2636 36.9187 29.943 36.6094 29.7799ZM32.67 31.3999C31.1531 32.2061 29.5988 33.033 28.125 33.7699V27.363C29.4356 27.9949 31.0181 28.8668 32.5594 29.7161C33.0994 30.0143 33.6394 30.3105 34.1719 30.6011C33.6731 30.8674 33.1687 31.1336 32.67 31.3999Z" fill="#808184"/>
<path d="M41.82 20.4237C40.2975 19.8743 32.445 19.8312 30.075 19.8312C25.38 19.8312 21.3188 19.9662 19.2094 20.1931C18.0113 20.3187 16.9631 20.8774 16.1775 21.8037C13.9725 24.3968 14.4431 35.9824 15.405 38.6224C15.9019 39.9818 16.8469 40.8987 18.2138 41.3487C20.0588 41.9562 28.2038 41.9862 29.8181 41.9862C33.1163 41.9862 40.9444 41.9018 42.4125 41.1312C43.3238 40.6568 43.9913 39.9799 44.3963 39.1155C45.7613 36.1887 45.6713 25.9493 44.5594 23.0656C44.0681 21.7906 43.1456 20.9018 41.82 20.4237ZM42.6956 38.3224C42.4688 38.8099 42.0919 39.1831 41.5481 39.4662C40.8863 39.7793 36.5531 40.1112 29.8181 40.1112C23.67 40.1112 19.6219 39.8374 18.7988 39.5655C17.9813 39.2974 17.4619 38.7931 17.1656 37.9793C16.2244 35.3956 16.1325 24.7474 17.6063 23.0168C18.0806 22.4562 18.6863 22.1318 19.4081 22.0568C21.4238 21.8393 25.5113 21.7043 30.0731 21.7043C36.4219 21.7043 40.5338 21.9518 41.1806 22.1862C41.9963 22.4806 42.5119 22.9737 42.8063 23.7406C43.7456 26.1724 43.8338 35.8849 42.6956 38.3224Z" fill="#808184"/>
</g>
<defs>
<clipPath id="clip0_13_794">
<rect width="60" height="60" fill="white" transform="translate(0 0.5)"/>
</clipPath>
</defs>
</svg>
