<svg width="50" height="50" viewBox="0 0 50 50" fill="none" xmlns="http://www.w3.org/2000/svg">
<path d="M17.7083 43.75H8.33325C8.33325 35.6958 14.8624 29.1667 22.9166 29.1667C23.2668 29.1667 23.6141 29.179 23.9583 29.2033M31.2499 14.5833C31.2499 19.1857 27.5189 22.9167 22.9166 22.9167C18.3142 22.9167 14.5833 19.1857 14.5833 14.5833C14.5833 9.98096 18.3142 6.25 22.9166 6.25C27.5189 6.25 31.2499 9.98096 31.2499 14.5833ZM26.2287 43.75L30.4474 42.9062C30.8153 42.8327 30.9993 42.7958 31.1708 42.7285C31.323 42.669 31.4676 42.5915 31.6018 42.4979C31.7528 42.3925 31.8855 42.26 32.1508 41.9946L40.812 33.3333C41.9626 32.1827 41.9626 30.3173 40.812 29.1667C39.6616 28.016 37.796 28.016 36.6453 29.1667L27.9841 37.8279C27.7189 38.0933 27.5862 38.2258 27.4808 38.3771C27.3872 38.511 27.3099 38.6558 27.2501 38.8081C27.1828 38.9796 27.1462 39.1635 27.0724 39.5312L26.2287 43.75Z" stroke="#989898" stroke-width="5" stroke-linecap="round" stroke-linejoin="round"/>
</svg>
