<svg width="48" height="37" viewBox="0 0 48 37" fill="none" xmlns="http://www.w3.org/2000/svg">
<g clip-path="url(#clip0_153_320)">
<path d="M15.7721 36.076C13.0201 36.076 10.5561 35.404 8.38007 34.06C6.20407 32.684 4.49207 30.7 3.24407 28.108C1.99607 25.516 1.37207 22.38 1.37207 18.7C1.37207 15.02 1.99607 11.884 3.24407 9.29198C4.49207 6.69998 6.20407 4.73198 8.38007 3.38798C10.5561 2.01198 13.0201 1.32397 15.7721 1.32397C18.5561 1.32397 21.0201 2.01198 23.1641 3.38798C25.3401 4.73198 27.0521 6.69998 28.3001 9.29198C29.5481 11.884 30.1721 15.02 30.1721 18.7C30.1721 22.38 29.5481 25.516 28.3001 28.108C27.0521 30.7 25.3401 32.684 23.1641 34.06C21.0201 35.404 18.5561 36.076 15.7721 36.076ZM15.7721 29.5C17.0841 29.5 18.2201 29.132 19.1801 28.396C20.1721 27.66 20.9401 26.492 21.4841 24.892C22.0601 23.292 22.3481 21.228 22.3481 18.7C22.3481 16.172 22.0601 14.108 21.4841 12.508C20.9401 10.908 20.1721 9.73997 19.1801 9.00398C18.2201 8.26798 17.0841 7.89998 15.7721 7.89998C14.4921 7.89998 13.3561 8.26798 12.3641 9.00398C11.4041 9.73997 10.6361 10.908 10.0601 12.508C9.51607 14.108 9.24407 16.172 9.24407 18.7C9.24407 21.228 9.51607 23.292 10.0601 24.892C10.6361 26.492 11.4041 27.66 12.3641 28.396C13.3561 29.132 14.4921 29.5 15.7721 29.5ZM38.9467 35.5V4.77998L42.3067 8.13998H32.2267V1.89998H46.7227V35.5H38.9467Z" fill="#E0E0E0"/>
</g>
<defs>
<clipPath id="clip0_153_320">
<rect width="47" height="36" fill="white" transform="translate(0.5 0.5)"/>
</clipPath>
</defs>
</svg>
