<svg width="100" height="100" viewBox="0 0 100 100" fill="none" xmlns="http://www.w3.org/2000/svg">
<g clip-path="url(#clip0_92_1154)">
<path d="M52.5708 98.2471C78.7653 98.2471 100 76.669 100 50.051C100 23.4331 78.7653 1.85498 52.5708 1.85498C26.3764 1.85498 5.1416 23.4331 5.1416 50.051C5.1416 76.669 26.3764 98.2471 52.5708 98.2471Z" fill="#99748D"/>
<path d="M55.8703 5.70117C51.7133 5.70117 47.6496 6.9538 44.1932 9.30066C40.7368 11.6475 38.0428 14.9832 36.452 18.8859C34.8612 22.7885 34.4449 27.0829 35.2559 31.226C36.0669 35.369 38.0687 39.1747 41.0082 42.1617C43.9476 45.1487 47.6927 47.1828 51.7699 48.0069C55.847 48.831 60.0731 48.4081 63.9137 46.7915C67.7542 45.175 71.0368 42.4375 73.3464 38.9251C75.6559 35.4128 76.8886 31.2835 76.8886 27.0592C76.8886 21.3947 74.6742 15.9622 70.7325 11.9568C66.7908 7.95139 61.4447 5.70117 55.8703 5.70117ZM55.8703 38.2914C53.6871 38.2779 51.5566 37.6078 49.7477 36.3654C47.9388 35.1231 46.5325 33.3642 45.7062 31.3106C44.8798 29.2571 44.6705 27.0008 45.1045 24.8265C45.5385 22.6522 46.5965 20.6572 48.145 19.0932C49.6935 17.5291 51.6631 16.4661 53.8054 16.0382C55.9477 15.6103 58.1667 15.8367 60.1826 16.6888C62.1984 17.5409 63.9208 18.9805 65.1324 20.8261C66.3441 22.6717 66.9907 24.8406 66.9907 27.0592C66.9908 28.54 66.7026 30.0062 66.143 31.3734C65.5833 32.7406 64.7631 33.9818 63.7296 35.0257C62.6961 36.0696 61.4697 36.8955 60.1209 37.456C58.772 38.0164 57.3275 38.3003 55.8703 38.2914Z" fill="#C0E6EA"/>
<path d="M60.7438 10.6704H51.2814C51.2814 10.6704 49.6067 2.99511 51.2814 1.34432C52.9562 -0.306458 59.2701 -0.527697 60.7438 1.34432C62.2176 3.21635 60.7438 10.6704 60.7438 10.6704Z" fill="#C0E6EA"/>
<path d="M59.8562 43.6689H50.3938C50.3938 43.6689 48.719 51.3442 50.3938 52.995C52.0685 54.6458 58.3824 54.867 59.8562 52.995C61.3299 51.123 59.8562 43.6689 59.8562 43.6689Z" fill="#C0E6EA"/>
<path d="M47.2116 11.9129L41.4169 19.5201C41.4169 19.5201 34.4499 16.1165 34.1652 13.819C33.8805 11.5215 37.5147 6.26282 39.9599 6.21176C42.405 6.16071 47.2116 11.9129 47.2116 11.9129Z" fill="#C0E6EA"/>
<path d="M40.0773 23.5021L38.5198 32.9984C38.5198 32.9984 30.8159 33.3728 29.476 31.4667C28.1362 29.5607 28.9569 23.1618 31.0168 21.9705C33.0768 20.7792 40.0773 23.5021 40.0773 23.5021Z" fill="#C0E6EA"/>
<path d="M72.0151 32.454L72.4003 22.8386C72.4003 22.8386 80.0205 21.5112 81.578 23.213C83.1356 24.9149 83.0853 31.3989 81.1761 32.8284C79.2669 34.258 72.0151 32.454 72.0151 32.454Z" fill="#C0E6EA"/>
<path d="M64.3276 11.5892L70.1223 19.2134C70.1223 19.2134 77.0893 15.8097 77.3908 13.4952C77.6922 11.1807 73.9575 5.93909 71.5961 5.88803C69.2347 5.83698 64.3276 11.5892 64.3276 11.5892Z" fill="#C0E6EA"/>
<path d="M45.8048 43.0051L40.0102 35.3809C40.0102 35.3809 33.0432 38.7845 32.7584 41.082C32.4737 43.3795 36.108 48.6552 38.5364 48.7063C40.9648 48.7573 45.8048 43.0051 45.8048 43.0051Z" fill="#C0E6EA"/>
<path d="M64.6963 43.2944L70.491 35.7383C70.491 35.7383 77.458 39.142 77.7594 41.4394C78.0609 43.7369 74.4099 48.9956 71.9648 49.0467C69.5196 49.0977 64.6963 43.2944 64.6963 43.2944Z" fill="#C0E6EA"/>
<path d="M17.3004 18.8901C14.6505 18.8901 12.0602 19.6886 9.85686 21.1846C7.65356 22.6806 5.93629 24.807 4.92222 27.2947C3.90815 29.7825 3.64282 32.5199 4.15979 35.1609C4.67676 37.8019 5.9528 40.2278 7.82656 42.1319C9.70032 44.0359 12.0876 45.3326 14.6866 45.8579C17.2856 46.3833 19.9795 46.1136 22.4277 45.0832C24.8758 44.0527 26.9683 42.3077 28.4405 40.0688C29.9127 37.8298 30.6985 35.1976 30.6985 32.5048C30.6985 28.894 29.287 25.431 26.7743 22.8778C24.2617 20.3245 20.8538 18.8901 17.3004 18.8901ZM17.3004 39.7206C15.9026 39.7206 14.5362 39.2994 13.374 38.5103C12.2117 37.7211 11.3059 36.5995 10.7709 35.2872C10.236 33.9749 10.096 32.5309 10.3687 31.1378C10.6414 29.7447 11.3146 28.465 12.303 27.4606C13.2914 26.4562 14.5507 25.7722 15.9216 25.4951C17.2926 25.218 18.7136 25.3602 20.0051 25.9038C21.2965 26.4474 22.4003 27.3679 23.1768 28.5489C23.9534 29.7299 24.3679 31.1185 24.3679 32.5389C24.3679 34.4436 23.6233 36.2703 22.2979 37.6171C20.9725 38.964 19.1749 39.7206 17.3004 39.7206Z" fill="#DBCAD6"/>
<path d="M20.4156 22.1238H14.3697C14.3697 22.1238 13.3313 17.2055 14.3697 16.1503C15.408 15.0952 19.4777 14.959 20.4156 16.1503C21.3534 17.3416 20.4156 22.1238 20.4156 22.1238Z" fill="#DBCAD6"/>
<path d="M19.863 43.1587H13.8004C13.8004 43.1587 12.762 48.077 13.8004 49.1321C14.8387 50.1873 18.8246 50.3234 19.863 49.1321C20.9013 47.9409 19.863 43.1587 19.863 43.1587Z" fill="#DBCAD6"/>
<path d="M11.7236 22.8555L8.0726 27.7227C8.0726 27.7227 3.61774 25.5274 3.34977 24.0638C3.08181 22.6002 5.54371 19.2306 7.06774 19.1965C8.59178 19.1625 11.7236 22.8555 11.7236 22.8555Z" fill="#DBCAD6"/>
<path d="M7.20155 30.2754L6.21345 36.334C6.21345 36.334 1.28965 36.5722 0.435518 35.3639C-0.41861 34.1556 0.100566 30.0542 1.42363 29.2884C2.74669 28.5225 7.20155 30.2754 7.20155 30.2754Z" fill="#DBCAD6"/>
<path d="M27.6001 35.9937L27.8346 29.8501C27.8346 29.8501 32.7081 28.9991 33.6962 30.0883C34.6843 31.1775 34.6676 35.313 33.445 36.232C32.2224 37.151 27.6001 35.9937 27.6001 35.9937Z" fill="#DBCAD6"/>
<path d="M22.71 22.6512L26.4112 27.5185C26.4112 27.5185 30.866 25.3572 31.0503 23.8255C31.2345 22.2938 28.8731 18.9923 27.349 18.9582C25.825 18.9242 22.71 22.6512 22.71 22.6512Z" fill="#DBCAD6"/>
<path d="M10.8695 42.733L7.1683 37.8657C7.1683 37.8657 2.71343 40.0441 2.52921 41.5077C2.34498 42.9712 4.7064 46.3579 6.23043 46.3749C7.75446 46.3919 10.8695 42.733 10.8695 42.733Z" fill="#DBCAD6"/>
<path d="M22.9443 42.92L26.6456 38.0527C26.6456 38.0527 31.1004 40.2311 31.3014 41.7117C31.5024 43.1923 29.1075 46.5449 27.5834 46.5789C26.0594 46.613 22.9443 42.92 22.9443 42.92Z" fill="#DBCAD6"/>
<path d="M22.0735 20.6259C11.8072 38.0698 14.9222 84.2917 45.9891 98.1957C50.4104 100.17 60.6767 103.301 63.7583 90.4183L50.0922 70.7961L42.2376 73.3999C38.438 69.6212 35.5979 64.9616 33.9613 59.8215C32.3248 54.6813 31.9408 49.2143 32.8422 43.89L40.6633 41.4564L38.6369 14.9077C38.6369 14.9077 27.9351 10.6702 22.0735 20.6259Z" fill="#05868A"/>
<path d="M35.5723 14.1592L36.3594 42.8011L43.4269 40.7419C43.4269 40.7419 44.6327 20.3198 38.6371 14.908L35.5723 14.1592Z" fill="#53B2B6"/>
<path d="M49.4224 71.0177L62.9377 92.8693C63.8065 91.4862 64.3773 89.9318 64.6125 88.3084C64.7799 85.8748 51.9178 69.8945 51.9178 69.8945L49.4224 71.0177Z" fill="#53B2B6"/>
<path d="M71.1443 49.4722L68.7996 57.0114L58.4663 55.6839L58.617 54.799L66.7061 54.5607L69.1345 47.9746C69.1345 47.9746 69.7877 45.6941 71.2615 46.2728C71.467 47.3341 71.4268 48.4294 71.1443 49.4722Z" fill="#FCC192"/>
<path d="M58.7339 54.8842C58.7339 54.8842 57.0591 54.2034 56.8247 54.4417C56.5902 54.68 55.9203 55.7691 58.6167 55.5819L58.7339 54.8842Z" fill="#FCC192"/>
<path d="M80.1876 47.6513L75.0126 53.5567L66.1196 48.0768L66.5383 47.3109L74.0245 50.4253L78.8981 45.4219C78.8981 45.4219 80.4053 43.6179 81.5107 44.7241C81.3028 45.7922 80.8494 46.7951 80.1876 47.6513Z" fill="#FCC192"/>
<path d="M66.6893 47.4301C66.6893 47.4301 65.517 46.1367 65.115 46.2218C64.7131 46.3069 63.7585 47.0557 66.2874 48.0087L66.6893 47.4301Z" fill="#FCC192"/>
<path d="M82.3986 87.5596L81.8794 87.5936L81.7957 88.4105L81.5947 88.7679L80.1377 89.9762L82.7671 89.1082L82.3986 87.5596Z" fill="#7C92CA"/>
<path d="M84.2911 86.1128L83.8724 86.4532L84.2409 87.185L84.2911 87.5934L83.7217 89.4144L85.4467 87.219L84.2911 86.1128Z" fill="#7C92CA"/>
<path d="M84.9607 58.0156L83.4869 74.5575L82.951 88.2062H81.6782L80.4221 74.0299L78.8311 58.0156H84.9607Z" fill="#BB5B72"/>
<path d="M73.3379 58.0156L73.7566 73.1109L83.7047 86.9299L84.9607 86.2832L78.0942 73.8087L80.5226 58.8665V58.0156H73.3379Z" fill="#C86278"/>
<path d="M85.4464 59.8365L73.5556 62.9679L72.7015 54.1864L70.541 45.7283L75.0294 43.5159L81.025 42.5288L83.1017 50.6806L85.4464 59.8365Z" fill="#53B2B6"/>
<path d="M71.0435 45.6431C71.0435 45.6431 73.2709 46.2557 70.9263 50.7486L68.4644 49.1318C68.4644 49.1318 69.1343 45.6771 71.0435 45.6431Z" fill="#53B2B6"/>
<path d="M81.2763 42.5461C81.2763 42.5461 83.5874 42.4439 82.6831 47.3963L79.8527 46.6305C79.8527 46.6305 79.4675 43.1928 81.2763 42.5461Z" fill="#53B2B6"/>
<path d="M76.1518 43.7711C76.2857 44.1965 74.611 44.639 74.477 44.2136C74.2589 43.5068 74.1295 42.7749 74.0918 42.0352L75.2139 41.2354C75.2139 41.2354 75.8838 42.8861 76.1518 43.7711Z" fill="#FCC192"/>
<path d="M74.4937 42.6648C74.3764 42.6648 73.3883 43.1583 73.0869 42.6648C72.6724 41.7413 72.4664 40.7354 72.4839 39.7206C72.5777 39.4504 72.7492 39.2151 72.9761 39.0452C73.2031 38.8753 73.4751 38.7786 73.7568 38.7676C74.3201 38.9917 74.7922 39.403 75.0963 39.9345C75.4004 40.466 75.5185 41.0864 75.4315 41.6947C75.2443 42.1225 74.9112 42.467 74.4937 42.6648Z" fill="#FCC192"/>
<path d="M72.2495 39.7886C72.2495 39.7886 72.5175 40.4353 72.9529 40.2481C73.3884 40.0609 74.1587 39.7376 74.3262 40.0609C74.4937 40.3843 74.4769 41.7628 74.7951 41.933C75.1134 42.1031 75.8335 42.3584 75.8503 41.933C75.867 41.5075 75.4483 38.6654 73.8908 38.4102C73.5023 38.4109 73.1262 38.5488 72.8268 38.8002C72.5274 39.0517 72.3233 39.4011 72.2495 39.7886Z" fill="#2F3C57"/>
<path d="M67.0743 45.2007C67.0743 51.2422 58.8847 55.9393 52.9226 55.9393C50.1378 55.8277 47.5037 54.6251 45.5722 52.5835C43.6408 50.542 42.562 47.8199 42.562 44.9879C42.562 42.156 43.6408 39.4339 45.5722 37.3924C47.5037 35.3508 50.1378 34.1482 52.9226 34.0366C58.8847 34.0366 67.0743 39.1421 67.0743 45.2007Z" fill="#53B2B6"/>
<path d="M43.3599 57.2836L47.1616 54.2373L43.946 47.6001L43.3599 57.2836Z" fill="#53B2B6"/>
<path d="M48.4341 42.6992V44.4011H50.1088V42.6992H51.1137V47.1921H50.1088V45.32H48.4341V47.1921H47.4292V42.6992H48.4341Z" fill="white"/>
<path d="M54.7148 45.286H53.0401V46.3582H54.8655V47.1921H52.0854V42.6992H54.8153V43.5331H53.1405V44.4691H54.8153L54.7148 45.286Z" fill="white"/>
<path d="M55.7197 42.6992H56.7246V46.3412H58.4831V47.1921H55.7197V42.6992Z" fill="white"/>
<path d="M59.2197 42.7501C59.6634 42.6858 60.1114 42.6574 60.5595 42.665C61.0385 42.625 61.5166 42.7509 61.9161 43.0224C62.0673 43.1474 62.1881 43.306 62.2694 43.486C62.3507 43.666 62.3903 43.8625 62.385 44.0605C62.3945 44.2577 62.3637 44.4548 62.2945 44.6393C62.2254 44.8239 62.1193 44.9918 61.9831 45.1327C61.5808 45.4731 61.0652 45.6437 60.5428 45.6092H60.2916V47.2089H59.3035L59.2197 42.7501ZM60.2078 44.7923C60.3186 44.8127 60.432 44.8127 60.5428 44.7923C61.0787 44.7923 61.3969 44.52 61.3969 44.0605C61.3969 43.601 61.1122 43.3968 60.6265 43.3968C60.4874 43.3812 60.347 43.3812 60.2078 43.3968V44.7923Z" fill="white"/>
</g>
<defs>
<clipPath id="clip0_92_1154">
<rect width="100" height="100" fill="white"/>
</clipPath>
</defs>
</svg>
