<svg width="101" height="100" viewBox="0 0 101 100" fill="none" xmlns="http://www.w3.org/2000/svg">
<g clip-path="url(#clip0_92_1329)">
<path d="M46.2512 100C71.5189 100 92.0024 77.6142 92.0024 50C92.0024 22.3858 71.5189 0 46.2512 0C20.9835 0 0.5 22.3858 0.5 50C0.5 77.6142 20.9835 100 46.2512 100Z" fill="#99748D"/>
<path d="M81.8406 51.7479C80.0903 52.2689 78.5201 53.3443 77.3279 54.8386C76.1356 56.3329 75.3746 58.1794 75.1407 60.1454C74.9068 62.1115 75.2104 64.1092 76.0133 65.887C76.8162 67.6649 78.0826 69.1433 79.6528 70.1362C81.2231 71.1291 83.027 71.592 84.8375 71.4666C86.648 71.3412 88.3841 70.6332 89.8271 69.4316C91.2701 68.2301 92.3555 66.5888 92.9467 64.7144C93.5379 62.8401 93.6083 60.8164 93.1492 58.8984C92.8398 57.6151 92.3012 56.4114 91.5645 55.3565C90.8277 54.3016 89.9073 53.4164 88.8562 52.7518C87.8052 52.0872 86.6442 51.6564 85.4402 51.4841C84.2362 51.3118 83.0128 51.4015 81.8406 51.7479ZM85.4271 66.5785C84.4997 66.8448 83.5209 66.8045 82.6145 66.4628C81.7081 66.121 80.9148 65.4931 80.3351 64.6585C79.7553 63.8239 79.4151 62.8201 79.3574 61.7741C79.2998 60.7281 79.5274 59.6869 80.0114 58.7823C80.4954 57.8777 81.214 57.1503 82.0763 56.6922C82.9387 56.2341 83.906 56.0658 84.8559 56.2086C85.8057 56.3515 86.6955 56.799 87.4126 57.4947C88.1297 58.1903 88.6418 59.1028 88.8843 60.1166C89.209 61.4745 89.0273 62.9177 88.3791 64.1293C87.7308 65.3408 86.6691 66.2217 85.4271 66.5785Z" fill="#C0E6EA"/>
<path d="M84.5065 53.4074L80.5001 54.555C80.5001 54.555 78.8846 51.2711 79.4823 50.3177C79.9883 49.741 80.6296 49.3273 81.3362 49.1218C82.0427 48.9163 82.7874 48.9269 83.4888 49.1524C84.2481 49.8057 84.5065 53.4074 84.5065 53.4074Z" fill="#C0E6EA"/>
<path d="M87.7374 68.5381L83.731 69.7033C83.731 69.7033 83.8764 73.3933 84.7487 73.9406C85.4488 74.1664 86.1921 74.1788 86.8982 73.9765C87.6043 73.7743 88.2464 73.365 88.7552 72.793C89.1591 71.7867 87.7374 68.5381 87.7374 68.5381Z" fill="#C0E6EA"/>
<path d="M78.8681 55.6142L77.2526 59.7985C77.2526 59.7985 73.9246 59.0923 73.5531 58.033C73.4483 57.2409 73.5434 56.4326 73.8281 55.6952C74.1128 54.9578 74.5763 54.3194 75.1686 53.8487C76.1217 53.6015 78.8681 55.6142 78.8681 55.6142Z" fill="#FFDA8A"/>
<path d="M77.1236 61.7936L77.5113 66.3134C77.5113 66.3134 74.2803 67.4257 73.5048 66.7195C73.0815 66.0649 72.8292 65.2967 72.7752 64.4973C72.7211 63.6979 72.8672 62.8976 73.1979 62.1821C73.8441 61.4229 77.1236 61.7936 77.1236 61.7936Z" fill="#FFDA8A"/>
<path d="M91.6146 61.9527L90.71 57.5212C90.71 57.5212 93.7956 55.9852 94.6356 56.5855C95.1431 57.1629 95.4946 57.8823 95.6514 58.6643C95.8082 59.4464 95.7642 60.2606 95.5242 61.017C94.9103 61.7938 91.6146 61.9527 91.6146 61.9527Z" fill="#C0E6EA"/>
<path d="M86.1221 53.3901L89.3531 56.1443C89.3531 56.1443 91.9379 53.7608 91.8087 52.6132C91.6794 51.4656 89.5146 49.5765 88.5776 49.859C87.6406 50.1415 86.1221 53.3901 86.1221 53.3901Z" fill="#C0E6EA"/>
<path d="M81.6954 69.9505L78.4644 67.1963C78.4644 67.1963 75.8796 69.5974 76.025 70.7274C76.1704 71.8573 78.3028 73.7641 79.256 73.4993C80.2091 73.2344 81.6954 69.9505 81.6954 69.9505Z" fill="#FFDA8A"/>
<path d="M89.7246 67.779L91.3401 63.6123C91.3401 63.6123 94.6681 64.3009 95.0396 65.3778C95.1431 66.1673 95.0473 66.9726 94.7626 67.7069C94.4779 68.4413 94.0151 69.0766 93.4241 69.5445C92.4548 69.7917 89.7246 67.779 89.7246 67.779Z" fill="#C0E6EA"/>
<path d="M86.5579 17.7613C84.8063 18.2873 83.2365 19.3687 82.0469 20.869C80.8572 22.3692 80.1009 24.2211 79.8736 26.1908C79.6462 28.1604 79.9579 30.1595 80.7694 31.9357C81.5809 33.7118 82.8557 35.1854 84.4329 36.1704C86.0101 37.1554 87.819 37.6075 89.6312 37.4698C91.4434 37.3321 93.1776 36.6107 94.6149 35.3966C96.0522 34.1826 97.1281 32.5304 97.7068 30.6485C98.2855 28.7667 98.3411 26.7397 97.8665 24.8234C97.5484 23.5481 97.0036 22.3538 96.2631 21.3086C95.5226 20.2635 94.601 19.388 93.5508 18.7322C92.5007 18.0764 91.3426 17.6531 90.1427 17.4865C88.9429 17.3199 87.7248 17.4133 86.5579 17.7613ZM90.1444 32.5918C89.2173 32.8615 88.2379 32.8245 87.3301 32.4855C86.4223 32.1465 85.627 31.5206 85.045 30.6873C84.4629 29.8539 84.1202 28.8505 84.0603 27.8041C84.0004 26.7577 84.226 25.7155 84.7086 24.8093C85.1911 23.9032 85.9088 23.1739 86.7709 22.7139C87.6329 22.2539 88.6005 22.0839 89.5511 22.2253C90.5016 22.3667 91.3924 22.8132 92.1106 23.5083C92.8288 24.2034 93.342 25.1158 93.5854 26.1299C93.9106 27.4854 93.7311 28.9265 93.0862 30.1376C92.4412 31.3488 91.3834 32.2312 90.1444 32.5918Z" fill="#DBCAD6"/>
<path d="M89.1751 19.4211L85.1525 20.5864C85.1525 20.5864 83.6178 17.2848 84.1347 16.3314C84.6435 15.7594 85.2856 15.3502 85.9917 15.1479C86.6978 14.9457 87.4411 14.9581 88.1412 15.1838C88.9489 15.89 89.1751 19.4211 89.1751 19.4211Z" fill="#DBCAD6"/>
<path d="M92.4225 34.5518L88.416 35.717C88.416 35.717 88.5776 39.407 89.4338 39.9543C90.1305 40.1904 90.8734 40.2115 91.5804 40.0152C92.2875 39.8189 92.9311 39.4129 93.4402 38.842C93.8603 37.8003 92.4225 34.5518 92.4225 34.5518Z" fill="#DBCAD6"/>
<path d="M83.5693 21.6279L81.9538 25.8122C81.9538 25.8122 78.6258 25.1236 78.2543 24.0467C78.1495 23.2546 78.2446 22.4462 78.5293 21.7089C78.814 20.9715 79.2775 20.333 79.8698 19.8623C80.8391 19.6152 83.5693 21.6279 83.5693 21.6279Z" fill="#DBCAD6"/>
<path d="M81.8245 27.7898L82.2122 32.3095C82.2122 32.3095 78.9812 33.4218 78.2058 32.7156C77.7785 32.0785 77.5168 31.327 77.4486 30.5406C77.3803 29.7542 77.508 28.9623 77.818 28.2488C78.545 27.4367 81.8245 27.7898 81.8245 27.7898Z" fill="#DBCAD6"/>
<path d="M96.3158 27.9659L95.4111 23.5521C95.4111 23.5521 98.4968 22.0161 99.3368 22.5987C99.8408 23.1785 100.191 23.8971 100.351 24.6776C100.51 25.4581 100.472 26.2713 100.242 27.0302C99.6115 27.8777 96.3158 27.9659 96.3158 27.9659Z" fill="#DBCAD6"/>
<path d="M90.791 19.4208L94.022 22.1751C94.022 22.1751 96.6068 19.7916 96.4776 18.644C96.3484 17.4964 94.1997 15.6602 93.2304 15.8897C92.2611 16.1193 90.791 19.4208 90.791 19.4208Z" fill="#DBCAD6"/>
<path d="M86.3968 35.9642L83.1658 33.21C83.1658 33.21 80.5972 35.6111 80.7264 36.741C80.8556 37.871 83.0043 39.7778 83.9574 39.5129C84.9106 39.2481 86.3968 35.9642 86.3968 35.9642Z" fill="#DBCAD6"/>
<path d="M94.4258 33.7922L96.0413 29.6255C96.0413 29.6255 99.3692 30.314 99.7408 31.391C99.8498 32.1808 99.7565 32.9882 99.4714 33.7237C99.1862 34.4591 98.7203 35.0939 98.1253 35.5577C97.1721 35.8049 94.4258 33.7922 94.4258 33.7922Z" fill="#DBCAD6"/>
<path d="M54.6032 69.209H30.5806V86.4406H54.6032V69.209Z" fill="#05868A"/>
<path d="M79.3692 15.3954H6.07358C5.0937 15.3953 4.15346 15.8183 3.45756 16.5722C2.76166 17.3261 2.36643 18.3499 2.35791 19.4208V66.2075H83.1334V19.4208C83.1291 18.886 83.0283 18.3574 82.8367 17.8654C82.645 17.3733 82.3663 16.9274 82.0165 16.5534C81.6668 16.1794 81.2529 15.8845 80.7986 15.6858C80.3443 15.4871 79.8585 15.3884 79.3692 15.3954Z" fill="#05868A"/>
<path d="M79.3693 81.8149H6.07365C5.58022 81.8149 5.09171 81.7076 4.63664 81.4991C4.18157 81.2907 3.76906 80.9852 3.42317 80.6006C3.07728 80.2161 2.80494 79.76 2.62206 79.2592C2.43917 78.7583 2.3494 78.2227 2.35798 77.6835V66.2075H83.1334V77.6835C83.1421 78.2272 83.0508 78.7672 82.8649 79.2716C82.6791 79.776 82.4024 80.2344 82.0513 80.6197C81.7003 81.005 81.282 81.3093 80.8213 81.5146C80.3605 81.7199 79.8668 81.822 79.3693 81.8149Z" fill="#53B2B6"/>
<path d="M72.6969 86.4404H6.42871V90.4482H72.6969V86.4404Z" fill="#53B2B6"/>
<path d="M79.6436 19.668H5.104V66.2075H79.6436V19.668Z" fill="#EBF0F9"/>
<path d="M91.227 9.49854H33.7148V45.6038H91.227V9.49854Z" fill="#C0E6EA"/>
<path d="M88.739 10.5757H35.0718V13.7536H88.739V10.5757Z" fill="#EBF0F9"/>
<path d="M56.2188 15.3423H35.8311V44.0676H56.2188V15.3423Z" fill="#EBF0F9"/>
<path d="M53.5208 33.9688H37.5596V42.3197H53.5208V33.9688Z" fill="#C0E6EA"/>
<path d="M53.5208 17.5317H37.5596V18.7146H53.5208V17.5317Z" fill="#C0E6EA"/>
<path d="M53.5208 20.1802H37.5596V21.3631H53.5208V20.1802Z" fill="#C0E6EA"/>
<path d="M53.5208 23.3579H37.5596V24.5408H53.5208V23.3579Z" fill="#C0E6EA"/>
<path d="M53.5208 26.0239H37.5596V27.2068H53.5208V26.0239Z" fill="#C0E6EA"/>
<path d="M88.723 15.3423H61.9863V16.7547H88.723V15.3423Z" fill="#EBF0F9"/>
<path d="M88.723 18.0083H61.9863V19.4207H88.723V18.0083Z" fill="#EBF0F9"/>
<path d="M88.723 21.1865H61.9863V22.599H88.723V21.1865Z" fill="#EBF0F9"/>
<path d="M88.723 24.541H61.9863V43.2381H88.723V24.541Z" fill="#EBF0F9"/>
<path d="M86.9943 26.6064H64.2964V35.0104H86.9943V26.6064Z" fill="#C0E6EA"/>
<path d="M64.9748 11.3701H35.8311V12.8708H64.9748V11.3701Z" fill="#C0E6EA"/>
<path d="M87.6568 11.3701H76.1221V12.8708H87.6568V11.3701Z" fill="#C0E6EA"/>
<path d="M68.3354 37.8882H10.8232V73.9934H68.3354V37.8882Z" fill="#C0E6EA"/>
<path d="M65.8313 38.9653H12.1641V42.1433H65.8313V38.9653Z" fill="#EBF0F9"/>
<path d="M33.3272 43.7324H12.9395V72.4577H33.3272V43.7324Z" fill="#EBF0F9"/>
<path d="M30.6292 62.3589H14.668V70.7099H30.6292V62.3589Z" fill="#C0E6EA"/>
<path d="M30.6292 45.9214H14.668V47.1043H30.6292V45.9214Z" fill="#C0E6EA"/>
<path d="M30.6292 48.5698H14.668V49.7527H30.6292V48.5698Z" fill="#C0E6EA"/>
<path d="M30.6292 51.748H14.668V52.931H30.6292V51.748Z" fill="#C0E6EA"/>
<path d="M30.6292 54.4141H14.668V55.597H30.6292V54.4141Z" fill="#C0E6EA"/>
<path d="M65.8314 43.7324H39.0947V45.1448H65.8314V43.7324Z" fill="#EBF0F9"/>
<path d="M65.8314 46.3809H39.0947V47.7933H65.8314V46.3809Z" fill="#EBF0F9"/>
<path d="M65.8314 49.5762H39.0947V50.9886H65.8314V49.5762Z" fill="#EBF0F9"/>
<path d="M65.8314 52.9307H39.0947V71.6277H65.8314V52.9307Z" fill="#EBF0F9"/>
<path d="M64.1027 54.9966H41.4048V63.4005H64.1027V54.9966Z" fill="#C0E6EA"/>
<path d="M42.0832 39.7598H12.9395V41.2605H42.0832V39.7598Z" fill="#C0E6EA"/>
<path d="M64.7647 39.7598H53.23V41.2605H64.7647V39.7598Z" fill="#C0E6EA"/>
<path d="M55.5403 90.5723C55.5403 91.967 54.9264 93.097 54.1671 93.097C53.424 93.097 52.8101 91.967 52.8101 90.5723V31.6033C52.8101 30.2086 53.424 29.0786 54.1671 29.0786C54.9264 29.0786 55.5403 30.2086 55.5403 31.6033V90.5723Z" fill="#05868A"/>
<path d="M65.8313 90.5723C65.8313 91.967 65.2174 93.097 64.4581 93.097C63.715 93.097 63.1011 91.967 63.1011 90.5723V31.6033C63.1011 30.2086 63.715 29.0786 64.4581 29.0786C65.2174 29.0786 65.8313 30.2086 65.8313 31.6033V90.5723Z" fill="#05868A"/>
<path d="M64.4578 34.4105C64.4578 34.8165 63.6339 35.152 62.6161 35.152H56.0248C55.0071 35.152 54.167 34.8165 54.167 34.4105C54.167 34.0044 55.0071 33.6689 56.0248 33.6689H62.6161C63.6339 33.6689 64.4578 34.0044 64.4578 34.4105Z" fill="#05868A"/>
<path d="M64.4578 39.5306C64.4578 39.9367 63.6339 40.2721 62.6161 40.2721H56.0248C55.0071 40.2721 54.167 39.9367 54.167 39.5306C54.167 39.1069 55.0071 38.7891 56.0248 38.7891H62.6161C63.6339 38.7891 64.4578 39.1069 64.4578 39.5306Z" fill="#05868A"/>
<path d="M64.4578 45.4979C64.4578 45.9039 63.6339 46.2394 62.6161 46.2394H56.0248C55.0071 46.2394 54.167 45.9039 54.167 45.4979C54.167 45.0741 55.0071 44.7563 56.0248 44.7563H62.6161C63.6339 44.7563 64.4578 45.0741 64.4578 45.4979Z" fill="#05868A"/>
<path d="M64.4578 50.6004C64.4578 51.0241 63.6339 51.3419 62.6161 51.3419H56.0248C55.0071 51.3419 54.167 51.0241 54.167 50.6004C54.167 50.1943 55.0071 49.8589 56.0248 49.8589H62.6161C63.6339 49.8589 64.4578 50.1943 64.4578 50.6004Z" fill="#05868A"/>
<path d="M64.4578 56.1439C64.4578 56.5676 63.6339 56.8854 62.6161 56.8854H56.0248C55.0071 56.8854 54.167 56.5676 54.167 56.1439C54.167 55.7378 55.0071 55.4023 56.0248 55.4023H62.6161C63.6339 55.4023 64.4578 55.7378 64.4578 56.1439Z" fill="#05868A"/>
<path d="M64.4578 61.264C64.4578 61.6701 63.6339 62.0055 62.6161 62.0055H56.0248C55.0071 62.0055 54.167 61.6701 54.167 61.264C54.167 60.8579 55.0071 60.5225 56.0248 60.5225H62.6161C63.6339 60.5225 64.4578 60.8579 64.4578 61.264Z" fill="#05868A"/>
<path d="M64.4578 67.2318C64.4578 67.6378 63.6339 67.9733 62.6161 67.9733H56.0248C55.0071 67.9733 54.167 67.6378 54.167 67.2318C54.167 66.8257 55.0071 66.4902 56.0248 66.4902H62.6161C63.6339 66.4902 64.4578 66.8257 64.4578 67.2318Z" fill="#05868A"/>
<path d="M64.4578 72.387C64.4578 72.7931 63.6339 73.1286 62.6161 73.1286H56.0248C55.0071 73.1286 54.167 72.7931 54.167 72.387C54.167 71.981 55.0071 71.6455 56.0248 71.6455H62.6161C63.6339 71.6455 64.4578 71.981 64.4578 72.387Z" fill="#05868A"/>
<path d="M64.4578 78.743C64.4578 79.1491 63.6339 79.4845 62.6161 79.4845H56.0248C55.0071 79.4845 54.167 79.1491 54.167 78.743C54.167 78.3369 55.0071 78.0015 56.0248 78.0015H62.6161C63.6339 78.0015 64.4578 78.3369 64.4578 78.743Z" fill="#05868A"/>
<path d="M64.4578 83.8631C64.4578 84.2692 63.6339 84.6046 62.6161 84.6046H56.0248C55.0071 84.6046 54.167 84.2692 54.167 83.8631C54.167 83.457 55.0071 83.1216 56.0248 83.1216H62.6161C63.6339 83.1216 64.4578 83.457 64.4578 83.8631Z" fill="#05868A"/>
<path d="M64.4578 89.4066C64.4578 89.8126 63.6339 90.1481 62.6161 90.1481H56.0248C55.0071 90.1481 54.167 89.8126 54.167 89.4066C54.167 89.0005 55.0071 88.665 56.0248 88.665H62.6161C63.6339 88.665 64.4578 89.0005 64.4578 89.4066Z" fill="#05868A"/>
<path d="M51.9376 24.7175L47.5273 32.4329L37.1719 27.9661L37.4788 27.0127L45.9279 29.1137L50.1929 22.4929C50.1929 22.4929 51.4691 20.1447 52.8423 21.1864C52.7992 22.4248 52.4892 23.6347 51.9376 24.7175Z" fill="#FCC192"/>
<path d="M37.6569 27.1542C37.6569 27.1542 36.2029 25.936 35.799 26.0949C35.3952 26.2538 34.5066 27.2954 37.4146 27.8604L37.6569 27.1542Z" fill="#FCC192"/>
<path d="M64.2321 27.0836L59.8056 34.799L49.4663 30.2968L49.7733 29.3258L58.2224 31.4268L62.4873 24.806C62.4873 24.806 63.7636 22.4579 65.1206 23.5172C65.0906 24.7667 64.7859 25.99 64.2321 27.0836Z" fill="#FCC192"/>
<path d="M49.9508 29.4846C49.9508 29.4846 48.4969 28.2488 48.093 28.4077C47.6891 28.5666 46.8006 29.6259 49.7085 30.1732L49.9508 29.4846Z" fill="#FCC192"/>
<path d="M61.114 76.3594L60.5324 76.4123L60.4194 77.401L60.2093 77.8424L58.5615 79.3078L61.5341 78.2485L61.114 76.3594Z" fill="#2F3C57"/>
<path d="M63.2463 74.6118L62.7778 75.0179L63.1978 75.9007L63.2463 76.395L62.6001 78.6196L64.5549 75.9536L63.2463 74.6118Z" fill="#2F3C57"/>
<path d="M64.0057 40.5015L62.3417 60.5933L61.744 77.154H60.3062L58.8684 59.94L57.0913 40.5015H64.0057Z" fill="#BB5B72"/>
<path d="M50.8877 40.5015L51.3562 58.8277L62.5678 75.5827L64.0056 74.8058L56.2512 59.6752L58.9975 41.5608V40.5015H50.8877Z" fill="#C86278"/>
<path d="M64.0056 40.5015H50.8877L52.3093 30.4733V20.4274L57.5436 19.2798L64.0056 19.9154V29.6258V40.5015Z" fill="#05868A"/>
<path d="M52.8584 20.4804C52.8584 20.4804 54.9909 21.8046 51.4044 26.0595L49.272 23.5525C49.272 23.5525 50.8713 19.9508 52.8584 20.4804Z" fill="#05868A"/>
<path d="M63.6342 19.8974C63.6342 19.8974 66.0736 19.5266 65.5889 25.2823L62.5033 24.7173C62.5033 24.7173 61.7602 20.7978 63.6342 19.8974Z" fill="#05868A"/>
<path d="M58.6584 19.8797C58.6584 20.3917 56.8329 20.3917 56.8168 19.8797C56.79 19.0251 56.866 18.1703 57.0429 17.3374L58.4 16.79C58.4 16.79 58.6584 18.8204 58.6584 19.8797Z" fill="#FCC192"/>
<path d="M57.2044 18.1496C57.0914 18.1496 55.9282 18.3791 55.7505 17.7612C55.559 16.5869 55.6087 15.3808 55.8959 14.2301C56.0687 13.9488 56.3161 13.7321 56.6049 13.609C56.8937 13.4859 57.21 13.4624 57.5114 13.5415C58.0302 13.9591 58.4039 14.5568 58.5712 15.2369C58.7385 15.9169 58.6895 16.6389 58.4322 17.2845C58.1395 17.7341 57.7 18.0437 57.2044 18.1496Z" fill="#FCC192"/>
<path d="M55.6372 14.3185C55.6372 14.3185 55.7503 15.0954 56.2511 15.0247C56.7519 14.9541 57.6243 14.7952 57.7212 15.2189C57.8181 15.6427 57.4466 17.0904 57.7212 17.4435C57.9958 17.7966 58.6744 18.2204 58.8198 17.7083C58.9652 17.1963 59.2721 13.9478 57.7212 13.2062C57.3097 13.099 56.8769 13.1513 56.4968 13.3542C56.1167 13.5571 55.8129 13.8979 55.6372 14.3185Z" fill="#2F3C57"/>
</g>
<defs>
<clipPath id="clip0_92_1329">
<rect width="100" height="100" fill="white" transform="translate(0.5)"/>
</clipPath>
</defs>
</svg>
