<svg width="111" height="100" viewBox="0 0 111 100" fill="none" xmlns="http://www.w3.org/2000/svg">
<g clip-path="url(#clip0_92_1295)">
<path d="M51.1034 99.9826C77.3983 99.9826 98.7146 77.7226 98.7146 50.2635C98.7146 22.8044 77.3983 0.544434 51.1034 0.544434C24.8084 0.544434 3.49219 22.8044 3.49219 50.2635C3.49219 77.7226 24.8084 99.9826 51.1034 99.9826Z" fill="#99748D"/>
<path d="M18.186 19.6105C14.7911 20.566 11.7432 22.5499 9.4266 25.3119C7.10997 28.0739 5.62834 31.4903 5.16854 35.1304C4.70873 38.7706 5.29134 42.4714 6.8429 45.7662C8.39445 49.061 10.8455 51.8023 13.8869 53.6445C16.9284 55.4866 20.424 56.3471 23.9331 56.1174C27.4423 55.8877 30.8077 54.5781 33.605 52.3538C36.4024 50.1295 38.5065 47.09 39.6519 43.6187C40.7973 40.1473 40.9329 36.3995 40.0414 32.8478C39.4479 30.4744 38.4102 28.2472 36.988 26.2948C35.5658 24.3424 33.7874 22.7035 31.7554 21.4728C29.7234 20.2421 27.4781 19.4438 25.1491 19.1242C22.8201 18.8045 20.4535 18.9698 18.186 19.6105ZM25.1293 47.0508C23.3376 47.5319 21.4496 47.448 19.7035 46.8098C17.9574 46.1715 16.4315 45.0075 15.3182 43.4646C14.205 41.9216 13.5543 40.0689 13.4484 38.1402C13.3424 36.2115 13.7859 34.2932 14.7228 32.6275C15.6598 30.9617 17.0482 29.623 18.713 28.7804C20.3777 27.9378 22.2441 27.6291 24.0767 27.893C25.9094 28.157 27.626 28.9819 29.0102 30.2637C30.3943 31.5454 31.3839 33.2266 31.854 35.095C32.1653 36.3412 32.2382 37.6392 32.0686 38.9148C31.8989 40.1904 31.4901 41.4186 30.8656 42.529C30.241 43.6395 29.4128 44.6104 28.4285 45.3863C27.4442 46.1622 26.3231 46.7278 25.1293 47.0508Z" fill="#C0E6EA"/>
<path d="M23.2466 22.6828L15.4963 24.8246C15.4963 24.8246 12.5206 18.7326 13.5125 16.977C14.5044 15.2214 19.6488 13.6062 21.2628 14.8352C22.8767 16.0641 23.2466 22.6828 23.2466 22.6828Z" fill="#C0E6EA"/>
<path d="M29.5508 50.667L21.7837 52.8088C21.7837 52.8088 22.0863 59.6382 23.7675 60.6565C25.4487 61.6747 30.7108 60.4282 31.5346 58.5146C32.3584 56.601 29.5508 50.667 29.5508 50.667Z" fill="#C0E6EA"/>
<path d="M12.4194 26.7733L9.29235 34.4981C9.29235 34.4981 2.87022 33.2165 2.18093 31.3379C1.49165 29.4594 3.37458 24.1926 5.30794 23.6132C7.2413 23.0339 12.4194 26.7733 12.4194 26.7733Z" fill="#C0E6EA"/>
<path d="M9.04034 38.1672L9.79687 46.5064C9.79687 46.5064 3.55967 48.5605 2.06342 47.2613C0.56716 45.9622 -0.138938 40.3793 1.30688 38.9221C2.7527 37.465 9.04034 38.1672 9.04034 38.1672Z" fill="#C0E6EA"/>
<path d="M37.066 38.5009L35.3848 30.3197C35.3848 30.3197 41.353 27.4756 42.9837 28.5641C44.6145 29.6526 45.9594 35.1126 44.6649 36.7453C43.3704 38.378 37.066 38.5009 37.066 38.5009Z" fill="#C0E6EA"/>
<path d="M26.3735 22.665L32.7452 27.7563C32.7452 27.7563 37.7888 23.3322 37.4862 21.3132C37.1836 19.2942 33.0647 15.8006 31.1145 16.2219C29.1643 16.6433 26.3735 22.665 26.3735 22.665Z" fill="#C0E6EA"/>
<path d="M17.8833 53.2832L11.5116 48.1743C11.5116 48.1743 6.46808 52.616 6.78751 54.6174C7.10693 56.6188 11.209 60.2179 13.1592 59.6912C15.1094 59.1645 17.8833 53.2832 17.8833 53.2832Z" fill="#C0E6EA"/>
<path d="M33.4346 49.2628L36.5616 41.5557C36.5616 41.5557 42.9837 42.8373 43.7234 44.7158C44.4631 46.5943 42.513 51.8436 40.5964 52.4229C38.6799 53.0023 33.4346 49.2628 33.4346 49.2628Z" fill="#C0E6EA"/>
<path d="M83.7352 82.9355L84.4077 83.1638L84.29 84.2698L84.4245 84.7965L85.9376 86.8506L82.8105 84.8843L83.7352 82.9355Z" fill="#7C92CA"/>
<path d="M83.2984 81.7944L82.5923 81.8647L82.4746 82.9707L82.2224 83.4623L80.2891 85.095L83.7691 83.9187L83.2984 81.7944Z" fill="#7C92CA"/>
<path d="M88.4597 50.5093L88.9977 68.1708L84.4585 83.5676L83.1135 82.918L85.4672 69.2066L81.2979 54.9334L88.4597 50.5093Z" fill="#C86278"/>
<path d="M82.3064 54.4242V68.5394L83.9203 82.2508H82.3064L79.1289 68.3287L76.2373 51.2466L82.3064 54.4242Z" fill="#A94F68"/>
<path d="M56.4833 43.3463C56.4833 43.3463 54.5836 42.2754 54.1465 42.5387C53.7094 42.8021 52.8688 44.1364 56.2648 44.2944L56.4833 43.3463Z" fill="#FCC192"/>
<path d="M72.9422 39.2557L68.4534 48.2971L55.979 44.3119L56.248 43.2058L66.3351 44.6981L70.7062 36.8681C70.7062 36.8681 71.9839 34.1293 73.6651 35.1124C73.7496 36.5343 73.5015 37.9563 72.9422 39.2557Z" fill="#53B2B6"/>
<path d="M78.0362 32.6543C79.7173 32.6543 83.3655 33.9535 84.4079 36.1655C85.2269 38.6217 85.7465 41.1757 85.9546 43.7674L88.4595 50.5616C88.4595 50.5616 83.5673 57.7245 76.1532 53.037C76.1532 53.037 74.3712 46.0145 73.1607 43.1178C72.4546 41.3622 70.185 36.7449 72.152 35.077C75.1109 32.6367 76.3886 32.6719 78.0362 32.6543Z" fill="#05868A"/>
<path d="M76.0018 30.4951L77.229 32.9354C77.229 32.9354 74.6568 35.9551 74.6736 34.5857C74.6317 33.3509 74.5194 32.1198 74.3374 30.8989L76.0018 30.4951Z" fill="#FCC192"/>
<path d="M75.3464 27.5107C75.8488 28.1237 76.1338 28.8987 76.1533 29.7053C76.0188 30.4602 75.8675 31.812 75.1614 32.3036C75.0368 32.3789 74.8991 32.4278 74.7563 32.4474C74.6135 32.467 74.4685 32.4569 74.3294 32.4178C74.1904 32.3786 74.0601 32.3111 73.9461 32.2192C73.8321 32.1273 73.7366 32.0128 73.6652 31.8822C73.3626 31.4082 72.5556 28.5641 73.6652 27.5634C74.4721 26.8085 75.0942 27.1421 75.3464 27.5107Z" fill="#FCC192"/>
<path d="M73.2617 28.2127C73.4861 28.3403 73.7375 28.4071 73.993 28.4071C74.2485 28.4071 74.4999 28.3403 74.7244 28.2127C75.5313 27.7914 75.6154 28.7043 75.6322 28.8096C75.649 28.915 75.7835 30.179 76.0861 30.1263C76.3887 30.0737 76.4392 28.3707 75.7835 27.4929C75.6127 27.2607 75.3796 27.0868 75.1138 26.9935C74.848 26.9001 74.5617 26.8915 74.2912 26.9687C74.0207 27.0459 73.7784 27.2054 73.595 27.427C73.4117 27.6485 73.2957 27.9221 73.2617 28.2127Z" fill="#2F3C57"/>
<path d="M75.9853 30.6357C75.6195 31.2219 75.055 31.6421 74.405 31.812C73.8166 31.812 73.3122 30.9166 73.2618 30.706C73.2114 30.4953 73.4131 32.7074 74.674 32.4616C75.9349 32.2158 75.9853 30.6357 75.9853 30.6357Z" fill="#2F3C57"/>
<path d="M69.2605 47.4017C69.2605 47.4017 67.1927 46.7697 66.8228 47.1208C66.4529 47.472 65.8813 48.8765 69.2101 48.3147L69.2605 47.4017Z" fill="#FCC192"/>
<path d="M84.5594 39.8349L81.9368 49.6488L68.958 48.4023V47.2612L79.0451 46.594L81.8191 38.0091C81.8191 38.0091 83.0295 34.2169 84.3913 35.6916C85.1646 36.4466 85.0638 37.8159 84.5594 39.8349Z" fill="#53B2B6"/>
<path d="M51.7087 72.3664C51.8448 72.8158 51.893 73.2892 51.8502 73.7585C51.8074 74.2277 51.6746 74.6832 51.4597 75.0977C51.2447 75.5122 50.9521 75.8772 50.5992 76.1711C50.2462 76.465 49.8403 76.6816 49.4054 76.8081C48.9762 76.9506 48.5239 77.0016 48.0754 76.9581C47.6269 76.9146 47.1914 76.7774 46.7947 76.5547C46.398 76.332 46.0481 76.0283 45.7659 75.6617C45.4838 75.2951 45.275 74.873 45.152 74.4205L28.4915 16.1515C28.3547 15.7044 28.3052 15.2332 28.3458 14.7658C28.3864 14.2984 28.5163 13.8442 28.7279 13.4301C28.9395 13.016 29.2285 12.6504 29.5777 12.3549C29.9269 12.0595 30.3293 11.8401 30.7611 11.7098C31.1891 11.5609 31.6415 11.5034 32.0912 11.5409C32.5409 11.5783 32.9788 11.7099 33.3788 11.9278C33.7789 12.1457 34.1328 12.4454 34.4196 12.8091C34.7063 13.1728 34.9201 13.593 35.0481 14.0448L51.7087 72.3664Z" fill="#DBCAD6"/>
<path d="M31.0135 0L33.653 9.25211L27.0964 11.3062L24.4569 2.03652C22.8183 3.40941 21.6873 5.33422 21.2576 7.48169C20.8278 9.62916 21.1259 11.8658 22.1009 13.8091C23.0759 15.7524 24.6673 17.2816 26.6026 18.1349C28.538 18.9883 30.6972 19.113 32.7109 18.4875C34.7246 17.8621 36.4676 16.5254 37.6417 14.7062C38.8159 12.8869 39.3483 10.6982 39.1478 8.51432C38.9472 6.33047 38.0263 4.28722 36.5426 2.7341C35.0588 1.18099 33.1043 0.214508 31.0135 0Z" fill="#DBCAD6"/>
<path d="M34.813 74.6138C34.6537 75.0545 34.4111 75.4573 34.0997 75.798C33.7882 76.1388 33.4143 76.4106 33.0002 76.5974C32.5861 76.7841 32.1402 76.8819 31.6892 76.885C31.2381 76.8881 30.7911 76.7963 30.3747 76.6152C29.9526 76.4489 29.567 76.1956 29.2407 75.8703C28.9144 75.5451 28.654 75.1547 28.4752 74.7222C28.2964 74.2898 28.2027 73.8242 28.1998 73.3531C28.1968 72.8821 28.2847 72.4153 28.4581 71.9804L49.8596 15.4495C50.0172 15.0073 50.2586 14.6027 50.5693 14.2601C50.88 13.9174 51.2537 13.6437 51.668 13.4552C52.0823 13.2668 52.5287 13.1675 52.9805 13.1632C53.4324 13.159 53.8805 13.2499 54.2979 13.4306C54.7199 13.5969 55.1056 13.8502 55.4319 14.1754C55.7582 14.5007 56.0185 14.8911 56.1974 15.3236C56.3762 15.756 56.4699 16.2216 56.4728 16.6927C56.4757 17.1637 56.3879 17.6305 56.2145 18.0654L34.813 74.6138Z" fill="#DBCAD6"/>
<path d="M61.4091 4.37171L58.0467 13.3605L51.6918 10.727L55.0542 1.73828C52.9577 1.75977 50.9336 2.54112 49.3278 3.94872C47.722 5.35632 46.6343 7.30274 46.2508 9.45514C45.8673 11.6075 46.2117 13.8322 47.2251 15.7488C48.2386 17.6654 49.8581 19.1548 51.8068 19.9623C53.7555 20.7698 55.9123 20.8453 57.9085 20.1759C59.9046 19.5065 61.616 18.1338 62.7501 16.2924C63.8842 14.451 64.3706 12.2554 64.1259 10.081C63.8813 7.90659 62.9209 5.88846 61.4091 4.37171Z" fill="#DBCAD6"/>
<path d="M13.9663 86.6398H75.6995L63.6454 44.979H13.9663V86.6398Z" fill="#05868A"/>
<path d="M13.966 86.6398H72.2864L60.2322 44.979H1.92871L13.966 86.6398Z" fill="#53B2B6"/>
<path d="M110.5 83.6025H72.2866V86.6398H110.5V83.6025Z" fill="#05868A"/>
<path d="M40.008 68.908C40.008 69.9497 39.7122 70.9679 39.158 71.8341C38.6038 72.7002 37.8161 73.3753 36.8945 73.7739C35.973 74.1725 34.9589 74.2768 33.9805 74.0736C33.0022 73.8704 32.1035 73.3688 31.3981 72.6322C30.6928 71.8956 30.2124 70.9571 30.0178 69.9355C29.8232 68.9138 29.9231 67.8548 30.3048 66.8924C30.6866 65.93 31.333 65.1075 32.1624 64.5287C32.9918 63.95 33.9669 63.6411 34.9645 63.6411C36.3021 63.6411 37.5849 64.196 38.5308 65.1837C39.4766 66.1715 40.008 67.5111 40.008 68.908Z" fill="#EAEAEA"/>
</g>
<defs>
<clipPath id="clip0_92_1295">
<rect width="110" height="100" fill="white" transform="translate(0.5)"/>
</clipPath>
</defs>
</svg>
