<svg width="44" height="36" viewBox="0 0 44 36" fill="none" xmlns="http://www.w3.org/2000/svg">
<path d="M40.75 9.66669L33.3317 13.788C29.1958 16.0856 27.1279 17.2346 24.9379 17.685C22.9996 18.0836 21.0004 18.0836 19.0621 17.685C16.8722 17.2346 14.8042 16.0856 10.6683 13.788L3.25 9.66669M9.91667 32.5834H34.0833C36.4169 32.5834 37.5838 32.5834 38.475 32.1292C39.259 31.7298 39.8965 31.0923 40.2958 30.3084C40.75 29.4171 40.75 28.2502 40.75 25.9167V10.0834C40.75 7.74981 40.75 6.58302 40.2958 5.69173C39.8965 4.90771 39.259 4.27029 38.475 3.87083C37.5838 3.41669 36.4169 3.41669 34.0833 3.41669H9.91667C7.58312 3.41669 6.41633 3.41669 5.52504 3.87083C4.74102 4.27029 4.1036 4.90771 3.70415 5.69173C3.25 6.58302 3.25 7.74979 3.25 10.0834V25.9167C3.25 28.2502 3.25 29.4171 3.70415 30.3084C4.1036 31.0923 4.74102 31.7298 5.52504 32.1292C6.41633 32.5834 7.5831 32.5834 9.91667 32.5834Z" stroke="#017E84" stroke-width="5" stroke-linecap="round" stroke-linejoin="round"/>
</svg>
