<svg width="43" height="36" viewBox="0 0 43 36" fill="none" xmlns="http://www.w3.org/2000/svg">
<path d="M40.25 9.66666L32.8317 13.7879C28.6958 16.0856 26.6279 17.2346 24.4379 17.685C22.4996 18.0835 20.5004 18.0835 18.5621 17.685C16.3722 17.2346 14.3042 16.0856 10.1683 13.7879L2.75 9.66666M9.41667 32.5833H33.5833C35.9169 32.5833 37.0838 32.5833 37.975 32.1292C38.759 31.7298 39.3965 31.0923 39.7958 30.3083C40.25 29.4171 40.25 28.2502 40.25 25.9167V10.0833C40.25 7.74978 40.25 6.58299 39.7958 5.6917C39.3965 4.90768 38.759 4.27026 37.975 3.8708C37.0838 3.41666 35.9169 3.41666 33.5833 3.41666H9.41667C7.08312 3.41666 5.91633 3.41666 5.02504 3.8708C4.24102 4.27026 3.6036 4.90768 3.20415 5.6917C2.75 6.58299 2.75 7.74976 2.75 10.0833V25.9167C2.75 28.2502 2.75 29.4171 3.20415 30.3083C3.6036 31.0923 4.24102 31.7298 5.02504 32.1292C5.91633 32.5833 7.0831 32.5833 9.41667 32.5833Z" stroke="#017E84" stroke-width="5" stroke-linecap="round" stroke-linejoin="round"/>
</svg>
